<svg xmlns="http://www.w3.org/2000/svg" viewBox="0 0 96 96" role="img" aria-labelledby="title desc">
  <title id="title">社會慈善圖示</title>
  <desc id="desc">雙手托起愛心的簡潔圖示</desc>
  <g fill="none" stroke="#7b653a" stroke-width="3.5" stroke-linecap="round" stroke-linejoin="round">
    <path d="M48 35c-6-8-19-5-19 6 0 10 12 17 19 23 7-6 19-13 19-23 0-11-13-14-19-6Z"/>
    <path d="M20 58c7 2 13 5 18 10h17c4 0 7 3 7 7H38"/>
    <path d="M76 58c-7 2-13 5-18 10"/>
    <path d="M19 58c-3 5-4 12-2 19 10 0 20 3 29 7h21c6 0 11-4 14-9"/>
    <path d="M77 58c3 5 4 10 2 17"/>
  </g>
</svg>
