<?xml version="1.0" encoding="UTF-8" standalone="no"?>
<!-- Created with Inkscape (http://www.inkscape.org/) -->

<svg
   width="200mm"
   height="85mm"
   viewBox="0 0 200 85"
   version="1.1"
   id="svg1"
   inkscape:version="1.4.4 (dcaf3e7, 2026-05-05)"
   sodipodi:docname="HKT_LOGO_02.svg"
   xmlns:inkscape="http://www.inkscape.org/namespaces/inkscape"
   xmlns:sodipodi="http://sodipodi.sourceforge.net/DTD/sodipodi-0.dtd"
   xmlns="http://www.w3.org/2000/svg"
   xmlns:svg="http://www.w3.org/2000/svg">
  <sodipodi:namedview
     id="namedview1"
     pagecolor="#505050"
     bordercolor="#eeeeee"
     borderopacity="1"
     inkscape:showpageshadow="0"
     inkscape:pageopacity="0"
     inkscape:pagecheckerboard="0"
     inkscape:deskcolor="#505050"
     inkscape:document-units="mm"
     inkscape:zoom="0.77949635"
     inkscape:cx="377.80805"
     inkscape:cy="561.25984"
     inkscape:window-width="1920"
     inkscape:window-height="1052"
     inkscape:window-x="1512"
     inkscape:window-y="28"
     inkscape:window-maximized="0"
     inkscape:current-layer="layer1" />
  <defs
     id="defs1" />
  <g
     inkscape:label="Layer 1"
     inkscape:groupmode="layer"
     id="layer1">
    <path
       d="m 22.171659,10.690678 c -1.505433,0.0784 -2.132664,1.827787 -1.676992,4.837857 0.205128,1.35468 0.300147,2.763753 0.210875,3.13091 -0.411321,1.692728 -1.585618,0.01787 -2.255921,-3.21759 -0.574066,-2.770922 -1.275642,-3.698569 -2.778151,-3.672416 -1.69074,0.02943 -2.30805,1.024427 -2.262409,3.646273 0.06468,3.717749 2.295835,7.14997 5.395537,8.300127 0.891534,0.330803 1.391284,0.717392 1.370834,1.059834 -0.01767,0.296407 -0.04427,0.910199 -0.0592,1.364438 -0.04285,1.302921 -1.587841,2.764074 -4.617207,4.366342 -2.650061,1.40165 -4.267978,2.963388 -4.248188,4.100671 0.01411,0.807498 1.654196,2.130201 2.620341,2.113384 1.086233,-0.01891 6.60458,-2.720664 7.279798,-3.5641 0.747411,-0.933633 1.649282,-0.657096 3.567172,1.094551 1.468351,1.341074 3.543656,4.115671 3.554744,4.752564 0.01026,0.589567 -1.162417,-0.236324 -3.050232,-2.148409 -1.241647,-1.257603 -2.516711,-2.28207 -2.833611,-2.276554 -0.31691,0.0055 -1.011928,0.389934 -1.544302,0.853953 -0.532353,0.464018 -2.418077,1.620742 -4.190321,2.57042 -2.577299,1.381076 -3.344134,1.965859 -3.832075,2.921569 l -0.61001,1.194547 1.010232,0.784823 c 0.555748,0.431555 1.328727,0.779946 1.717485,0.774086 1.127458,-0.01699 3.029752,-0.978972 4.795833,-2.425622 0.899322,-0.736666 1.9647,-1.345129 2.367938,-1.352147 0.414356,-0.0072 1.292233,0.539921 2.018738,1.258472 0.707009,0.699276 1.944656,1.596169 2.750482,1.99304 0.805815,0.396872 1.389588,0.849102 1.296945,1.004967 -0.0926,0.155868 -3.787094,0.26631 -8.209775,0.245761 -10.9689684,-0.05098 -12.1646597,0.01015 -13.5060885,0.690084 -1.426345,0.723027 -2.1451731,1.990815 -1.8177131,3.205579 0.1334413,0.495035 0.3769903,0.81352 0.5413195,0.707968 0.1643088,-0.10555 0.4365525,0.04497 0.6051157,0.334255 0.3149506,0.540465 4.4713784,0.510557 35.8723634,-0.258622 4.06415,-0.09955 7.391703,-0.07882 7.394079,0.04606 0.002,0.124879 0.416123,0.288657 0.919995,0.364461 0.503862,0.07581 2.13704,0.09503 3.629151,0.04231 2.377239,-0.084 2.817132,-0.197558 3.55578,-0.916253 0.463623,-0.451102 0.837069,-1.174523 0.829525,-1.607706 -0.01858,-1.064877 -1.379698,-2.30964 -2.747994,-2.513151 -0.61593,-0.09161 -5.4565,-0.20933 -10.757008,-0.26146 -8.661974,-0.08519 -9.537536,-0.143892 -8.649221,-0.580483 0.543584,-0.267163 1.950241,-1.064196 3.125787,-1.771003 l 2.13769,-1.284637 2.485224,1.135422 c 1.366884,0.624694 2.698271,1.341678 2.958696,1.593198 0.48134,0.464869 2.601089,0.585615 3.550591,0.202168 0.772704,-0.312054 0.61402,-1.905698 -0.269005,-2.701144 -0.417727,-0.376292 -1.924734,-1.459826 -3.34916,-2.408225 -1.424426,-0.948398 -3.18542,-2.133992 -3.913041,-2.634565 l -1.322573,-0.910058 -4.054027,3.074472 c -2.229633,1.691185 -4.132536,3.07909 -4.228632,3.08381 -0.09605,0.0047 -0.130029,-0.568767 -0.07514,-1.273936 0.07026,-0.903274 -0.162836,-1.779484 -0.790006,-2.965491 -0.489627,-0.925895 -0.894296,-1.949795 -0.899221,-2.275589 -0.01645,-1.091719 2.044376,-4.184477 3.236351,-4.856602 1.144435,-0.645313 3.397015,-0.655442 4.100928,-0.01838 0.512574,0.463888 -0.375955,1.586135 -2.138218,2.701061 -3.467564,2.193813 -4.371628,3.622483 -3.111957,4.917412 1.082984,1.113305 1.933527,0.940783 4.301211,-0.872552 2.254448,-1.7266 3.39868,-2.467951 3.820966,-2.475301 0.144408,-0.0025 1.068718,0.579714 2.053982,1.293545 0.985284,0.71383 1.977849,1.294345 2.205588,1.290381 0.22774,-0.004 0.76384,0.286127 1.191478,0.644173 2.056449,1.721757 4.57514,-0.385686 3.26597,-2.732761 C 49.919011,34.063054 48.954614,33.282438 47.97,32.676473 45.235632,30.993654 44.731587,30.117948 44.676553,26.955843 l -0.0461,-2.645723 1.903036,-0.414123 c 2.98605,-0.650172 4.388757,-1.638882 5.43938,-3.83382 0.662302,-1.383678 0.911264,-2.440383 0.928444,-3.944226 0.02264,-1.978039 -0.02315,-2.095548 -1.237028,-3.171301 -0.927438,-0.821924 -1.563949,-1.112101 -2.408481,-1.097401 -0.631313,0.01099 -1.251263,0.19461 -1.37783,0.407606 -0.126568,0.212996 -0.245743,1.502395 -0.264466,2.865242 -0.03533,2.568288 -0.684498,4.119961 -1.826385,4.36552 -0.434978,0.09354 -0.541593,-0.455395 -0.691047,-3.551831 -0.157343,-3.260735 -0.259338,-3.741182 -0.929692,-4.387869 -0.485332,-0.468201 -1.157361,-0.719287 -1.891572,-0.706507 -1.985698,0.03456 -2.190165,0.470875 -2.119515,4.529634 0.05767,3.313905 0.01097,3.614051 -0.561424,3.624014 -0.752782,0.0131 -1.285308,-1.110488 -1.750413,-3.691881 -0.434004,-2.408808 -0.873278,-3.178746 -1.958425,-3.43111 -1.358792,-0.316002 -2.550726,0.293014 -2.917603,1.490813 l -0.323256,1.055735 -0.813401,-1.143533 c -1.002371,-1.409618 -1.857331,-1.873844 -2.923399,-1.586464 -0.864942,0.233157 -1.7389,1.896641 -1.720988,3.275267 0.01462,1.116415 -1.477246,4.272852 -2.02411,4.282372 -0.62655,0.01091 -0.990747,-2.13182 -0.758265,-4.458552 0.22578,-2.25952 -0.342417,-3.750132 -1.53426,-4.027311 -0.250311,-0.05821 -0.483077,-0.08092 -0.698135,-0.06972 z m 10.504381,6.431108 5.28e-4,-9e-6 5.28e-4,-9e-6 c 3.35e-4,5e-6 6.7e-4,-1.2e-5 10e-4,-1.9e-5 0.09453,-0.0016 0.348529,0.610064 0.564195,1.358838 0.4859,1.686988 3.093772,4.300558 4.829412,4.840058 0.968673,0.301102 1.23452,0.5546 1.245526,1.18744 0.01381,0.792906 -0.03056,0.805699 -3.058111,0.865608 -3.770472,0.07459 -5.46438,0.755803 -6.603393,2.657031 -0.423281,0.706547 -0.861093,1.548224 -0.973465,1.869984 -0.266497,0.763066 -1.129295,0.754607 -2.457494,-0.02387 -1.398899,-0.819918 -1.793537,-1.586635 -1.827786,-3.554086 -0.03402,-1.955369 0.363253,-2.520901 2.147204,-3.059126 1.967969,-0.593741 4.588005,-2.879907 5.337407,-4.657016 0.340934,-0.808481 0.696459,-1.472881 0.794403,-1.48482 z m 19.030223,31.941346 c 0.15051,-0.0026 0.30173,0.01793 0.416712,0.06202 0.229963,0.08817 0.04417,0.167164 -0.412579,0.175113 -0.456718,0.0079 -0.644665,-0.06454 -0.41791,-0.160658 0.113377,-0.04806 0.263267,-0.07386 0.413777,-0.07648 z m -37.656345,2.928852 c -1.7495,0.254811 -2.455483,0.516527 -2.888716,1.071001 -0.817878,1.046781 -0.667226,3.652094 0.210255,3.63682 0.181205,-0.0031 0.830124,0.221283 1.44188,0.498645 0.924555,0.419181 2.237441,0.466201 7.780188,0.279686 l 6.668295,-0.224176 0.03046,1.328767 c 0.0525,2.31984 2.094678,5.556135 3.098838,4.911114 0.255287,-0.163966 0.316626,-0.116968 0.16967,0.130344 -0.128131,0.215605 -0.03726,0.394626 0.204863,0.403147 1.356507,0.04774 2.397648,0.27354 2.581756,0.560147 0.115287,0.179475 1.622294,0.609057 3.349039,0.954554 3.781255,0.756581 4.422305,1.41096 3.182211,3.248697 -0.867175,1.285103 -2.465038,1.730165 -8.475763,2.360053 -8.493127,0.890027 -11.145279,1.65477 -11.65432,3.361055 -0.198781,0.666301 0.477259,2.820384 0.785072,2.501661 0.08021,-0.08302 0.759129,0.111245 1.508936,0.431353 l 5.18e-4,-9e-6 c 0.749868,0.320121 1.526207,0.525377 1.725059,0.45593 0.198903,-0.06945 2.525037,-0.399839 5.169016,-0.734417 5.95362,-0.753393 10.619495,-1.603503 12.358486,-2.251305 2.076696,-0.773597 4.151472,-2.744202 5.046926,-4.793656 1.124696,-2.5741 0.878964,-4.738187 -0.786524,-6.926154 -1.637503,-2.151217 -3.439305,-2.970358 -7.543735,-3.429404 -3.475058,-0.388654 -4.071908,-0.575192 -4.084133,-1.277626 -0.01909,-1.095684 0.875948,-1.230051 9.662925,-1.450785 6.793086,-0.170647 8.728085,-0.312229 8.658014,-0.633511 -0.04965,-0.227567 0.134233,-0.417972 0.408264,-0.422741 0.368695,-0.0064 0.491678,-0.395083 0.472528,-1.495485 -0.03737,-2.144342 -0.754783,-2.495674 -5.612189,-2.747735 -6.032728,-0.313051 -30.868783,-0.12452 -33.467841,0.25403 z m 31.006083,19.738252 c 0.002,-1.72e-4 0.003,-4.9e-5 0.0041,-7.4e-5 0.09138,-0.0016 -0.0991,0.300621 -0.423352,0.671756 -0.324302,0.371135 -0.664617,0.675955 -0.755981,0.677545 -0.09138,0.0016 0.09961,-0.300629 0.42388,-0.671765 0.319246,-0.365335 0.653733,-0.666621 0.75125,-0.677462 z"
       style="fill:#000000;stroke-width:1.01538"
       id="path1" />
    <path
       d="m 99.406677,10.822289 c -0.89271,-0.0129 -1.696171,0.43555 -2.335322,1.32346 -0.509081,0.7072 -0.671455,1.63601 -0.800032,4.57506 -0.207701,4.74764 -0.630605,6.90446 -1.755414,8.95487 -2.794609,5.09429 -8.2646,8.84678 -18.376561,12.60677 -4.55994,1.69555 -5.087763,2.09267 -4.812919,3.61794 0.288364,1.60031 1.09786,2.3165 2.588938,2.29055 0.691804,-0.012 1.255807,-0.1554 1.252968,-0.31848 -0.0028,-0.16308 0.281257,-0.22691 0.631699,-0.14175 0.961393,0.23361 4.894737,-1.22324 10.099119,-3.74045 3.612176,-1.74711 3.451892,-1.72453 4.018552,-0.55837 0.691364,1.42281 1.043758,3.58407 0.789816,4.84457 -0.13021,0.64633 -1.03657,1.95562 -2.355463,3.40255 -3.68279,4.04031 -4.940702,6.3504 -6.028543,11.07026 -1.598204,6.93421 -1.355066,11.84318 0.627351,12.67344 0.604483,0.25316 1.818724,0.29012 2.940841,0.0894 0.564045,-0.1009 1.168401,-2.43554 1.135624,-4.38761 -0.04666,-2.77746 0.634102,-7.21698 1.461653,-9.53017 0.843443,-2.35762 2.263253,-4.57045 4.902614,-7.64003 2.395178,-2.78559 3.034078,-3.97651 3.366031,-6.27465 0.275735,-1.90894 -0.350391,-5.28111 -1.401824,-7.55045 l -0.633149,-1.36688 1.567533,-1.39847 c 0.862089,-0.76912 1.530005,-1.56652 1.484017,-1.77224 -0.04599,-0.20573 0.159879,-0.43206 0.457953,-0.50311 0.350378,-0.0835 0.913728,0.39128 1.593544,1.34345 0.578337,0.81001 1.216137,1.46992 1.417397,1.46642 0.20129,-0.004 0.26611,0.0969 0.14395,0.22335 -0.12216,0.12649 0.47092,0.90968 1.31774,1.74002 l 1.53958,1.50925 -1.58098,2.43704 c -2.822927,4.35244 -2.922237,5.60447 -0.62199,7.82601 1.83511,1.77231 2.28725,2.69236 1.68997,3.43808 -0.22198,0.27714 -1.40701,1.17798 -2.6336,2.00209 -3.911028,2.62768 -4.785623,4.26593 -4.04026,7.56661 0.555908,2.46172 2.301197,4.88079 7.1933,9.96976 3.33516,3.46937 4.6596,4.61464 6.19247,5.35524 1.03889,0.50194 1.89346,0.8375 1.94425,0.76571 0.001,-0.002 0.002,-0.006 0.002,-0.008 -0.002,-0.10149 0.25703,-0.0385 0.57509,0.13936 0.74743,0.41809 1.72522,0.41562 1.71791,-0.004 -0.003,-0.17992 0.15497,-0.29268 0.35174,-0.25111 0.19676,0.0416 0.63197,-0.29756 0.96733,-0.75333 0.51187,-0.69568 0.55303,-1.01949 0.25639,-2.01757 -0.38138,-1.28317 -1.3678,-2.21042 -5.24126,-4.92628 -4.83059,-3.38694 -8.37781,-7.17399 -8.4092,-8.97745 -0.0238,-1.36917 0.60668,-2.24934 2.39071,-3.337 0.80437,-0.49039 1.4603,-0.99719 1.45805,-1.12625 -0.002,-0.12906 0.30262,-0.43337 0.67717,-0.67645 0.45325,-0.29397 0.60366,-0.31195 0.45028,-0.0538 -0.41218,0.69362 0.91014,-0.2183 1.93815,-1.3367 0.72979,-0.79396 0.95081,-1.3461 0.93365,-2.33222 -0.0197,-1.13376 -0.25588,-1.51989 -1.92895,-3.15276 -1.65113,-1.61145 -1.90989,-2.02817 -1.92873,-3.11038 -0.0215,-1.23232 0.51044,-2.73191 1.4021,-3.95447 0.51146,-0.70126 0.58644,-0.68328 4.76623,1.12283 1.17871,0.50933 3.65923,1.26956 5.51208,1.68974 3.08023,0.69853 3.47317,0.72252 4.58612,0.27731 1.53218,-0.6129 2.14598,-1.79685 1.64168,-3.16632 -0.4211,-1.14355 -1.3859,-1.59519 -5.91907,-2.77217 -6.01019,-1.56046 -7.96634,-2.45484 -10.6365,-4.86286 -4.17598,-3.76599 -4.9302,-5.88113 -5.07555,-14.23129 -0.10129,-5.8195 -0.42805,-6.97304 -2.20333,-7.782 -0.43541,-0.19841 -0.859617,-0.29979 -1.265383,-0.30565 z m 10.139423,1.04016 c -1.00887,0.0554 -2.1188,0.7109 -2.4704,1.51962 -0.9155,2.10568 0.0471,8.83501 1.72236,12.04036 0.81471,1.55883 4.09608,5.00048 4.75652,4.98899 0.17578,-0.003 0.32219,0.12989 0.32506,0.29514 0.008,0.45372 2.18733,1.65678 4.43474,2.4481 3.66202,1.28941 6.09204,0.74337 6.05541,-1.36133 -0.0209,-1.20245 -1.20354,-2.28558 -3.06412,-2.80687 -3.5063,-0.98239 -6.44527,-3.1474 -7.5706,-5.57623 -0.38396,-0.82871 -0.89491,-3.17721 -1.22357,-5.62314 -0.60169,-4.47783 -1.13903,-5.72778 -2.54133,-5.91031 -0.13749,-0.0179 -0.27994,-0.0222 -0.42407,-0.0143 z m -20.585975,1.3579 c -1.407392,0.0411 -2.315293,1.15418 -3.147933,3.80965 -0.752396,2.39956 -2.220785,4.83577 -3.835365,6.36139 -0.601279,0.56815 -2.361392,1.72252 -3.910743,2.56545 -2.867332,1.55999 -4.143424,2.76733 -4.12369,3.90107 0.01642,0.94303 0.639354,1.88675 1.450259,2.19718 1.114057,0.42648 1.938128,0.34884 3.916385,-0.37052 6.795296,-2.47101 12.665424,-9.25298 12.57363,-14.52662 -0.0451,-2.59132 -0.863009,-3.81207 -2.634561,-3.93176 -0.09839,-0.007 -0.194157,-0.009 -0.287982,-0.006 z"
       style="fill:#000000"
       id="path1-4" />
    <path
       d="m 169.13905,8.8836713 c -0.51666,0.02682 -1.06776,0.1902328 -1.63408,0.4957013 -1.66587,0.8985394 -1.95453,2.1807324 -1.97865,8.7893154 -0.0126,3.462497 -0.15214,5.98884 -0.33774,6.108435 -0.50206,0.323521 -2.34894,-0.172737 -3.90653,-1.049488 -2.19824,-1.237371 -2.63145,-2.120765 -3.84747,-7.850168 -0.51847,-2.442861 -1.52458,-3.82415 -3.04051,-4.17406 -1.6239,-0.374829 -2.71937,0.09323 -3.45278,1.474971 -0.49661,0.935609 -0.56486,1.561077 -0.40175,3.677004 0.27271,3.537621 1.60432,6.796368 4.11968,10.080901 2.52875,3.302019 4.05686,4.172403 8.05798,4.587753 1.54952,0.160849 2.86847,0.339408 2.93092,0.397084 0.0624,0.05764 0.009,0.280512 -0.11889,0.495535 -0.17884,0.300963 -1.70963,0.35116 -6.65022,0.217072 -3.52983,-0.09577 -8.43447,-0.127095 -10.89931,-0.06934 -4.10111,0.09606 -4.63201,0.177252 -6.2538,0.954148 -1.45953,0.699168 -1.80722,1.024219 -1.97205,1.842359 -0.26864,1.333511 0.0933,2.708305 0.89916,3.412408 0.58635,0.512368 1.50268,0.588994 8.05183,0.67188 4.06453,0.05149 12.13058,0.159942 17.92425,0.241453 5.79368,0.08153 12.46308,0.120951 14.82115,0.08728 2.35808,-0.03365 4.3456,-0.0059 4.4166,0.06329 0.26624,0.257126 3.78923,-0.26876 5.09835,-0.761155 1.75603,-0.66049 2.40736,-1.675406 2.15239,-3.354117 -0.42799,-2.817758 -1.73462,-3.135758 -12.61085,-3.06792 l -8.25498,0.05149 -0.10965,-0.797522 c -0.10003,-0.727733 0.0441,-0.834553 1.64513,-1.222235 5.72585,-1.386458 10.19999,-6.274559 11.54948,-12.617337 0.36298,-1.706029 0.24036,-4.579074 -0.21199,-4.968785 -0.49822,-0.429218 -2.31933,-1.113913 -2.93414,-1.103205 -1.66256,0.02897 -3.01262,1.925411 -3.62717,5.096094 -0.73982,3.81702 -3.80314,7.798352 -6.03015,7.837118 -0.23136,0.0039 -0.28386,-0.908916 -0.16485,-2.868208 0.31304,-5.15376 0.0965,-9.689064 -0.52192,-10.929858 C 171.2462,9.4271405 170.2757,8.8248246 169.13905,8.8837786 Z M 156.70946,39.88752 c -0.8358,0.07217 -1.15131,0.214497 -1.45759,0.471456 -0.63497,0.532732 -0.65492,0.673344 -0.26966,1.882286 0.229,0.718625 0.7631,1.695623 1.18703,2.171458 l 0.77115,0.865137 5.85638,0.104723 c 10.1216,0.180587 12.50363,0.63957 13.56819,2.613237 0.67511,1.251649 0.62468,1.689079 -0.3297,2.864219 -0.76256,0.938953 -0.85786,0.975779 -1.14757,0.443379 -2.2385,-4.113712 -5.05825,-5.070386 -14.76061,-5.007395 -4.6635,0.03033 -5.65949,0.122131 -6.54218,0.603311 -1.94266,1.059007 -2.09008,3.150699 -0.30882,4.382063 0.69274,0.478868 1.75738,0.566933 7.48536,0.619226 5.26531,0.04808 6.83821,0.162438 7.43916,0.541412 0.41915,0.264332 0.67818,0.621704 0.57584,0.793933 -0.11299,0.190155 -3.27872,0.355626 -8.06052,0.421572 -4.33117,0.05969 -8.3037,0.244428 -8.82737,0.410718 -2.06153,0.654609 -2.23121,3.612491 -0.28695,5.00166 0.86742,0.619714 1.27101,0.644993 7.9443,0.488758 3.86676,-0.0905 7.99645,-0.277157 9.17712,-0.414288 l 2.14696,-0.249069 0.42014,1.405036 c 0.82851,2.772389 1.48869,2.580547 -9.52621,2.772272 -8.42066,0.146571 -9.83912,0.240526 -10.51599,0.698183 -2.02766,1.371 -1.97298,4.133744 0.10214,5.172827 1.04076,0.521145 1.80811,0.537939 10.05616,0.221138 8.80572,-0.338218 10.93988,-0.2199 10.7643,0.594923 -0.0491,0.228034 0.0858,1.429652 0.30003,2.670788 0.42686,2.473191 1.56571,5.145617 2.63075,6.174215 0.82965,0.801258 2.32941,0.832066 2.96337,0.06086 1.54395,-1.878268 1.64249,-7.071458 0.2655,-13.966355 -0.524,-2.623722 -1.16046,-5.51005 -1.41462,-6.41364 l -0.46208,-1.642725 1.20486,-0.568875 c 1.46517,-0.691629 3.20487,-2.440432 3.85606,-3.876745 1.22976,-2.712421 -0.20643,-7.445808 -2.77576,-9.148111 -1.89996,-1.258807 -4.19783,-2.067135 -6.64173,-2.3361 -1.23998,-0.136467 -2.97486,-0.376799 -3.85521,-0.534234 -0.88036,-0.157435 -4.00849,-0.311154 -6.95178,-0.341211 -2.38827,-0.02438 -3.74467,-0.02214 -4.58045,0.05003 z"
       style="fill:#000000;stroke-width:0.975252"
       id="path1-5" />
  </g>
</svg>
